<?xml version="1.0" encoding="UTF-8"?>
<!DOCTYPE svg PUBLIC "-//W3C//DTD SVG 1.1//EN" "http://www.w3.org/Graphics/SVG/1.1/DTD/svg11.dtd">
<!-- Creator: CorelDRAW 2019 (64-Bit) -->
<svg xmlns="http://www.w3.org/2000/svg" xml:space="preserve" width="5.94553in" height="2.2963in" version="1.1" style="shape-rendering:geometricPrecision; text-rendering:geometricPrecision; image-rendering:optimizeQuality; fill-rule:evenodd; clip-rule:evenodd"
viewBox="0 0 5944.74 2296"
 xmlns:xlink="http://www.w3.org/1999/xlink"
 xmlns:xodm="http://www.corel.com/coreldraw/odm/2003">
 <defs>
  <style type="text/css">
   <![CDATA[
    .fil14 {fill:#D2D3D5}
    .fil11 {fill:#D2D3D5}
    .fil13 {fill:#C2C4C6}
    .fil12 {fill:#4D4D4E}
    .fil9 {fill:#3F3D3E}
    .fil10 {fill:#373435}
    .fil4 {fill:#F68C34}
    .fil1 {fill:#D8B375}
    .fil5 {fill:#D5CF3C}
    .fil3 {fill:#884B32}
    .fil6 {fill:#AC9F4D}
    .fil15 {fill:#989898}
    .fil16 {fill:#818081}
    .fil7 {fill:#686037}
    .fil2 {fill:#282829}
    .fil17 {fill:#E0E0E0cc}
    .fil8 {fill:#58585A;fill-rule:nonzero}
    .fil0 {fill:#B3B3B3;fill-rule:nonzero}
   ]]>
  </style>
    <mask id="id0">
  <radialGradient id="id1" gradientUnits="userSpaceOnUse" cx="2099.62" cy="33.68" r="760.33" fx="2099.62" fy="33.68">
   <stop offset="0" style="stop-opacity:0; stop-color:white"/>
   <stop offset="1" style="stop-opacity:1; stop-color:white"/>
  </radialGradient>
     <rect style="fill:url(#id1)" x="2341.14" y="110.88" width="802.09" height="1184.84"/>
    </mask>
 </defs>
 <g id="Layer_x0020_1">
  <metadata id="CorelCorpID_0Corel-Layer"/>
  <g id="_2682406194144">
   <path class="fil0" d="M3745.25 519.39c-26.84,0 -48.6,-21.76 -48.6,-48.6 0,-26.84 21.76,-48.6 48.6,-48.6 716.96,0 1433.92,0 2150.89,0 26.84,0 48.6,21.76 48.6,48.6 0,26.84 -21.76,48.6 -48.6,48.6 -716.96,0 -1433.92,0 -2150.89,0z"/>
   <path class="fil1" d="M4355.04 208.76c93.26,0 143.28,50.17 287.46,50.17 112.49,0 224.97,0 337.46,0 145.68,0 198.68,-50.17 291.63,-50.17 111.79,0 206.85,71.56 241.91,171.36 13.88,24.41 41.9,42.06 71.6,42.06 65.16,9.33 50.17,97.21 0,97.21 -29.98,0 -59.94,17.5 -75.77,41.76 -38.01,94 -130.12,160.32 -237.74,160.32 -93.53,0 -144.55,-50.17 -291.63,-50.17 -117.61,0 -226.41,0 -337.46,0 -142.54,0 -194.92,50.17 -287.46,50.17 -107.08,0 -198.82,-65.66 -237.17,-158.92 0.11,0.7 0.24,1.41 0.38,2.11 -15.13,-26.06 -46.53,-45.27 -77.93,-45.27 -50.17,0 -65.16,-87.88 0,-97.21 31.41,0 60.93,-19.74 73.85,-46.32l0.38 0.29c36.16,-97.73 130.19,-167.4 240.49,-167.4zm1169.15 212.51l0.15 0.92 1.02 0 -1.18 -0.92z"/>
   <path class="fil2" d="M4941.42 258.93l38.54 0c35.85,0 66.09,-3.04 92.69,-7.62l0 427.53c-26.51,-4.53 -56.72,-7.54 -92.69,-7.54l-38.54 0 0 -412.37z"/>
   <path class="fil3" d="M5215.34 214.83c17.77,-3.7 36.07,-6.07 56.25,-6.07 26.09,0 51.26,3.91 74.98,11.15l0 490.41c-23.72,7.24 -48.89,11.15 -74.98,11.15 -20.28,0 -38.56,-2.36 -56.25,-6.05l0 -500.59z"/>
   <polygon class="fil4" points="4667.5,258.93 4798.73,258.93 4798.73,671.3 4667.5,671.3 "/>
   <path class="fil5" d="M4387.34 210.81l0 508.6c-10.33,1.31 -21.01,2.06 -32.3,2.06 -11.29,0 -22.41,-0.74 -33.31,-2.15l0 -508.41c10.91,-1.42 22.02,-2.15 33.31,-2.15 11.32,0 22,0.75 32.3,2.05z"/>
   <path class="fil6" d="M4387.34 210.81l0 373.04 -65.61 0 0 -372.93c10.91,-1.42 22.02,-2.15 33.31,-2.15 11.32,0 22,0.75 32.3,2.05z"/>
   <path class="fil7" d="M4387.34 210.81l0 266.8 -65.61 0 0 -266.7c10.91,-1.42 22.02,-2.15 33.31,-2.15 11.32,0 22,0.75 32.3,2.05z"/>
   <path class="fil0" d="M3718.03 1594.43c-26.84,0 -48.6,-21.76 -48.6,-48.6 0,-26.84 21.76,-48.6 48.6,-48.6 716.96,0 1433.92,0 2150.89,0 26.84,0 48.6,21.76 48.6,48.6 0,26.84 -21.76,48.6 -48.6,48.6 -716.96,0 -1433.92,0 -2150.89,0z"/>
   <path class="fil0" d="M2978.14 2247.39c0,26.84 -21.76,48.6 -48.6,48.6 -26.84,0 -48.6,-21.76 -48.6,-48.6l0 -1290.63 -136.99 0c-43.29,0 -64.92,-52.6 -34.16,-83.17l193.77 -192.1c32.16,-20.51 74.33,2.57 74.59,41.08l0 1524.83z"/>
   <path class="fil0" d="M2762.48 757.14l-251.35 251.34 0 873.31c0,26.84 -21.76,48.6 -48.6,48.6 -26.84,0 -48.6,-21.76 -48.6,-48.6l0 -1159.22c0,-26.84 21.76,-48.6 48.6,-48.6l265.79 0c26.84,0 48.6,21.76 48.6,48.6 0,13.53 -5.53,25.76 -14.44,34.57z"/>
   <path class="fil8" d="M1.11 432.14l81.02 0 0 26.97c0,5.4 -1.03,10.12 -3.11,14.16 -2.07,4.03 -4.98,7.16 -8.71,9.38 -3.74,2.22 -8.12,3.33 -13.15,3.33 -5.03,0 -9.42,-1.11 -13.16,-3.33 -3.74,-2.22 -6.64,-5.35 -8.71,-9.38 -2.07,-4.03 -3.11,-8.75 -3.11,-14.16l0 -13.09 -31.08 0 0 -13.88zm43.62 13.88l0 13.09c0,3.92 1.13,7.03 3.39,9.33 2.25,2.29 5.27,3.44 9.05,3.44 3.77,0 6.79,-1.15 9.04,-3.44 2.26,-2.29 3.39,-5.4 3.39,-9.33l0 -13.09 -24.86 0zm-44.73 77.47c0,-7.77 2.17,-13.87 6.5,-18.31 4.33,-4.44 10.23,-6.66 17.7,-6.66l37.96 0 0 13.87 -37.85 0c-3.92,0 -6.94,0.96 -9.05,2.89 -2.11,1.92 -3.16,4.66 -3.16,8.21 0,3.48 1.05,6.2 3.16,8.16 2.11,1.96 5.13,2.94 9.05,2.94l37.85 0 0 13.87 -37.96 0c-7.47,0 -13.38,-2.25 -17.7,-6.77 -4.33,-4.52 -6.5,-10.59 -6.5,-18.21zm0.11 64.27c0,-6.96 1.59,-12.56 4.77,-16.82 3.18,-4.25 7.47,-6.49 12.88,-6.71l0 13.87c-2,0.15 -3.57,1.09 -4.72,2.83 -1.15,1.74 -1.72,4.02 -1.72,6.83l0 4.89c0,3.41 0.67,5.96 2,7.66 1.33,1.7 3.15,2.55 5.44,2.55 4.07,0 6.55,-3.11 7.44,-9.33l1.11 -7.55c0.97,-6.96 2.81,-12.06 5.55,-15.32 2.74,-3.26 6.85,-4.89 12.32,-4.89 5.7,0 10.12,1.92 13.27,5.77 3.15,3.85 4.72,9.51 4.72,16.99l0 4.22c0,6.73 -1.52,12.15 -4.55,16.26 -3.03,4.11 -7.11,6.31 -12.21,6.6l0 -13.87c1.63,-0.22 2.96,-1.13 4,-2.72 1.04,-1.59 1.55,-3.68 1.55,-6.27l0 -4.22c0,-3.18 -0.57,-5.5 -1.72,-6.94 -1.15,-1.44 -2.83,-2.17 -5.05,-2.17 -2.07,0 -3.63,0.63 -4.66,1.89 -1.04,1.26 -1.74,3.29 -2.11,6.1l-1.11 7.88c-1.04,7.25 -2.98,12.6 -5.83,16.04 -2.85,3.44 -7.05,5.16 -12.6,5.16 -5.99,0 -10.62,-2.02 -13.87,-6.05 -3.26,-4.03 -4.88,-9.97 -4.88,-17.81l0 -4.89zm1 44.18l81.02 0 0 13.88 -19.97 0 -11.66 -0.33 0 0.22c4,0.59 7.12,2.31 9.38,5.16 2.26,2.85 3.39,6.53 3.39,11.04 0,5.99 -2,10.79 -6,14.37 -3.99,3.59 -9.36,5.39 -16.09,5.39l-40.07 0 0 -13.87 38.63 0c3.7,0 6.55,-0.98 8.54,-2.94 2,-1.96 3,-4.64 3,-8.05 0,-3.4 -1.04,-6.09 -3.11,-8.04 -2.07,-1.96 -5.03,-2.94 -8.88,-2.94l-38.18 0 0 -13.88zm0 133.19l81.02 0 0 24.86c0,7.85 -1.87,14.06 -5.61,18.65 -3.74,4.59 -8.82,6.88 -15.26,6.88 -4.81,0 -8.77,-1.38 -11.88,-4.16 -3.11,-2.78 -5.03,-6.35 -5.77,-10.71 -0.59,4.88 -2.57,8.9 -5.94,12.04 -3.37,3.15 -7.86,4.72 -13.49,4.72 -7.03,0 -12.63,-2.35 -16.82,-7.05 -4.18,-4.69 -6.27,-11.08 -6.27,-19.15l0 -26.08zm47.62 13.55l0 11.1c0,3.63 0.98,6.51 2.94,8.65 1.96,2.15 4.64,3.22 8.05,3.22 3.33,0 5.97,-1.05 7.94,-3.16 1.96,-2.11 2.94,-5.02 2.94,-8.71l0 -11.1 -21.87 0zm-36.08 0l0 11.65c0,4.07 1.09,7.27 3.28,9.6 2.18,2.33 5.16,3.5 8.94,3.5 3.78,0 6.83,-1.17 9.16,-3.5 2.33,-2.33 3.49,-5.53 3.49,-9.6l0 -11.65 -24.86 0zm-12.65 77.8c0,-7.77 2.17,-13.87 6.5,-18.31 4.33,-4.44 10.23,-6.66 17.7,-6.66l37.96 0 0 13.88 -37.85 0c-3.92,0 -6.94,0.96 -9.05,2.89 -2.11,1.92 -3.16,4.66 -3.16,8.21 0,3.48 1.05,6.2 3.16,8.16 2.11,1.96 5.13,2.94 9.05,2.94l37.85 0 0 13.87 -37.96 0c-7.47,0 -13.38,-2.26 -17.7,-6.77 -4.33,-4.52 -6.5,-10.59 -6.5,-18.21zm1.11 73.26c0,-5.85 1.63,-10.42 4.89,-13.71 3.26,-3.29 7.73,-4.94 13.43,-4.94l30.19 0 0 -16.54 12.55 0 0 16.54 17.2 0 0 13.99 -17.2 0 0 23.42 -12.55 0 0 -23.42 -30.19 0c-3.85,0 -5.77,1.89 -5.77,5.66l0 16.65 -12.55 0 0 -17.65zm0 66.59c0,-5.84 1.63,-10.42 4.89,-13.7 3.26,-3.29 7.73,-4.94 13.43,-4.94l30.19 0 0 -16.54 12.55 0 0 16.54 17.2 0 0 13.99 -17.2 0 0 23.42 -12.55 0 0 -23.42 -30.19 0c-3.85,0 -5.77,1.89 -5.77,5.66l0 16.65 -12.55 0 0 -17.65zm-1 59.94c0,-7.85 2.16,-14.06 6.49,-18.65 4.33,-4.59 10.16,-6.88 17.48,-6.88l15.1 0c7.32,0 13.15,2.29 17.48,6.88 4.33,4.59 6.5,10.8 6.5,18.65 0,7.84 -2.16,14.06 -6.5,18.64 -4.33,4.59 -10.12,6.88 -17.37,6.88l-15.2 0c-7.33,0 -13.15,-2.29 -17.48,-6.88 -4.33,-4.59 -6.49,-10.8 -6.49,-18.64zm12.1 0c0,3.7 1.02,6.57 3.05,8.6 2.04,2.03 4.98,3.05 8.83,3.05l15.1 0c3.85,0 6.79,-1.02 8.82,-3.05 2.04,-2.04 3.05,-4.9 3.05,-8.6 0,-3.7 -1.02,-6.57 -3.05,-8.61 -2.03,-2.03 -4.98,-3.05 -8.82,-3.05l-15.1 0c-3.85,0 -6.79,1.02 -8.83,3.05 -2.04,2.04 -3.05,4.9 -3.05,8.61zm-11.1 41.84l61.05 0 0 13.55 -11.66 0 0 0.22c4,0.67 7.12,2.4 9.38,5.22 2.26,2.81 3.39,6.48 3.39,10.99 0,6 -2,10.79 -6,14.38 -3.99,3.59 -9.36,5.38 -16.09,5.38l-40.07 0 0 -13.87 38.63 0c3.7,0 6.55,-0.98 8.54,-2.94 2,-1.96 3,-4.61 3,-7.94 0,-3.48 -1.04,-6.2 -3.11,-8.16 -2.07,-1.96 -5.03,-2.94 -8.88,-2.94l-38.18 0 0 -13.88zm30.19 140.19l12.88 0 0 35.51 -12.88 0 0 -35.51zm-30.19 126.42l12.65 0 26.2 25.31c3.63,3.55 6.9,6.18 9.82,7.88 2.92,1.7 5.94,2.55 9.05,2.55 3.7,0 6.62,-1.04 8.77,-3.11 2.15,-2.07 3.22,-4.88 3.22,-8.44 0,-3.92 -1.13,-6.99 -3.39,-9.22 -2.25,-2.22 -5.38,-3.33 -9.38,-3.33l0 -13.88c5.18,0.07 9.64,1.2 13.37,3.39 3.74,2.18 6.64,5.27 8.72,9.27 2.07,3.99 3.11,8.66 3.11,13.99 0,5.11 -0.96,9.54 -2.89,13.32 -1.92,3.78 -4.64,6.7 -8.16,8.77 -3.52,2.07 -7.64,3.11 -12.38,3.11 -4.96,0 -9.77,-1.28 -14.43,-3.83 -4.66,-2.55 -9.73,-6.64 -15.21,-12.27l-16.54 -16.65 0 33.75 -12.55 0 0 -50.62zm0 132.97l81.02 0 0 26.97c0,5.4 -1.03,10.12 -3.11,14.15 -2.07,4.03 -4.98,7.16 -8.71,9.38 -3.74,2.22 -8.12,3.33 -13.15,3.33 -5.03,0 -9.42,-1.11 -13.16,-3.33 -3.74,-2.22 -6.64,-5.35 -8.71,-9.38 -2.07,-4.03 -3.11,-8.75 -3.11,-14.15l0 -13.1 -31.08 0 0 -13.88zm43.62 13.88l0 13.1c0,3.92 1.13,7.03 3.39,9.32 2.25,2.29 5.27,3.44 9.05,3.44 3.77,0 6.79,-1.15 9.04,-3.44 2.26,-2.29 3.39,-5.4 3.39,-9.32l0 -13.1 -24.86 0zm-43.62 52.61l12.65 0 0 21.31 35.85 0 0 -18.54 12.55 0 0 31.86 -48.4 0 0 18.86 -12.65 0 0 -53.5zm71.26 26.86c0,-2.81 0.72,-5.03 2.16,-6.66 1.44,-1.63 3.39,-2.44 5.83,-2.44 2.44,0 4.39,0.81 5.83,2.44 1.44,1.63 2.17,3.85 2.17,6.66 0,2.81 -0.72,5.03 -2.17,6.66 -1.44,1.63 -3.39,2.44 -5.83,2.44 -2.44,0 -4.38,-0.81 -5.83,-2.44 -1.44,-1.63 -2.16,-3.85 -2.16,-6.66zm-71.26 39.84l61.05 0 0 13.55 -11.66 0 0 0.22c4,0.67 7.12,2.41 9.38,5.22 2.26,2.81 3.39,6.47 3.39,10.98 0,6 -2,10.79 -6,14.38 -3.99,3.59 -9.36,5.38 -16.09,5.38l-40.07 0 0 -13.87 38.63 0c3.7,0 6.55,-0.98 8.54,-2.94 2,-1.96 3,-4.61 3,-7.94 0,-3.48 -1.04,-6.2 -3.11,-8.16 -2.07,-1.96 -5.03,-2.94 -8.88,-2.94l-38.18 0 0 -13.88zm-1 91.35c0,-7.84 2.16,-14.06 6.49,-18.64 4.33,-4.59 10.16,-6.88 17.48,-6.88l15.1 0c7.32,0 13.15,2.29 17.48,6.88 4.33,4.59 6.5,10.8 6.5,18.64 0,7.85 -2.16,14.06 -6.5,18.65 -4.33,4.59 -10.12,6.88 -17.37,6.88l-15.2 0c-7.33,0 -13.15,-2.29 -17.48,-6.88 -4.33,-4.59 -6.49,-10.8 -6.49,-18.65zm12.1 0c0,3.7 1.02,6.57 3.05,8.61 2.04,2.03 4.98,3.05 8.83,3.05l15.1 0c3.85,0 6.79,-1.02 8.82,-3.05 2.04,-2.04 3.05,-4.9 3.05,-8.61 0,-3.7 -1.02,-6.57 -3.05,-8.6 -2.03,-2.03 -4.98,-3.05 -8.82,-3.05l-15.1 0c-3.85,0 -6.79,1.02 -8.83,3.05 -2.04,2.04 -3.05,4.9 -3.05,8.6zm-12.1 64.27c0,-6.96 1.59,-12.56 4.77,-16.82 3.18,-4.26 7.47,-6.49 12.88,-6.71l0 13.87c-2,0.15 -3.57,1.09 -4.72,2.83 -1.15,1.74 -1.72,4.02 -1.72,6.83l0 4.89c0,3.41 0.67,5.95 2,7.66 1.33,1.7 3.15,2.55 5.44,2.55 4.07,0 6.55,-3.11 7.44,-9.33l1.11 -7.55c0.97,-6.96 2.81,-12.06 5.55,-15.32 2.74,-3.26 6.85,-4.89 12.32,-4.89 5.7,0 10.12,1.92 13.27,5.77 3.15,3.85 4.72,9.51 4.72,16.99l0 4.22c0,6.73 -1.52,12.15 -4.55,16.26 -3.03,4.11 -7.11,6.31 -12.21,6.6l0 -13.87c1.63,-0.22 2.96,-1.13 4,-2.72 1.04,-1.59 1.55,-3.68 1.55,-6.27l0 -4.22c0,-3.18 -0.57,-5.5 -1.72,-6.94 -1.15,-1.44 -2.83,-2.17 -5.05,-2.17 -2.07,0 -3.63,0.63 -4.66,1.89 -1.04,1.26 -1.74,3.29 -2.11,6.1l-1.11 7.88c-1.04,7.25 -2.98,12.6 -5.83,16.04 -2.85,3.44 -7.05,5.16 -12.6,5.16 -5.99,0 -10.62,-2.02 -13.87,-6.05 -3.26,-4.03 -4.88,-9.97 -4.88,-17.81l0 -4.89z"/>
   <rect class="fil9" x="286.32" y="767.14" width="1219.23" height="566.44"/>
   <rect class="fil10" x="286.32" y="1333.58" width="414.09" height="89.31"/>
   <rect class="fil10" x="1091.46" y="1333.58" width="414.09" height="89.31"/>
   <path class="fil10" d="M521.33 767.14l37.03 -696.91c2.05,-38.63 36.22,-70.23 75.93,-70.23l232.69 0 57.91 0 232.69 0c39.71,0 73.88,31.6 75.93,70.23l37.03 696.91c-249.74,0 -499.48,0 -749.22,0z"/>
   <path class="fil11" d="M1431.57 1333.58l-160.85 0 0 753.17c0,14.74 6,28.39 16.09,39.39l0 48.83c0,13.41 11.81,24.66 27.34,27.14l0 15c0,16.66 16.64,30.28 36.99,30.28l0.01 0c20.35,0 36.99,-13.62 36.99,-30.28l0 -15c15.53,-2.48 27.34,-13.73 27.34,-27.14l0 -48.84c10.09,-11 16.08,-24.65 16.08,-39.38l0 -753.17z"/>
   <path class="fil11" d="M360.31 1333.58l160.85 0 0 753.17c0,14.74 -6,28.39 -16.09,39.39l0 48.83c0,13.41 -11.81,24.66 -27.34,27.14l0 15c0,16.66 -16.64,30.28 -36.99,30.28l-0.01 0c-20.35,0 -36.99,-13.62 -36.99,-30.28l0 -15c-15.53,-2.48 -27.34,-13.73 -27.34,-27.14l0 -48.84c-10.09,-11 -16.08,-24.65 -16.08,-39.38l0 -753.17z"/>
   <path class="fil12" d="M316.78 706.22l351.92 0c16.75,0 30.46,13.71 30.46,30.46l0 30.46 -412.84 0 0 -30.46c0,-16.75 13.7,-30.46 30.46,-30.46z"/>
   <path class="fil13" d="M348.1 645.3l231.79 0c16.75,0 30.46,13.71 30.46,30.46l0 30.46 -292.71 0 0 -30.46c0,-16.75 13.71,-30.46 30.46,-30.46z"/>
   <path class="fil12" d="M1475.09 706.22l-351.92 0c-16.75,0 -30.46,13.71 -30.46,30.46l0 30.46 412.84 0 0 -30.46c0,-16.75 -13.71,-30.46 -30.46,-30.46z"/>
   <path class="fil13" d="M1443.78 645.3l-231.79 0c-16.75,0 -30.46,13.71 -30.46,30.46l0 30.46 292.71 0 0 -30.46c0,-16.75 -13.71,-30.46 -30.46,-30.46z"/>
   <path class="fil8" d="M1964.97 599.47l81.02 0 0 13.87 -68.15 0 0 34.41 -12.88 0 0 -48.28zm-1.11 88.57c0,-5.18 1,-9.69 3,-13.54 2,-3.85 4.79,-6.83 8.38,-8.94 3.59,-2.11 7.79,-3.16 12.6,-3.16l15.32 0c4.81,0 9.01,1.05 12.6,3.16 3.59,2.11 6.38,5.09 8.38,8.94 2,3.85 3,8.36 3,13.54 0,5.11 -1,9.57 -3,13.38 -1.99,3.81 -4.79,6.77 -8.38,8.88 -3.59,2.11 -7.79,3.16 -12.6,3.16l-10.98 0 0 -37.62 -4.33 0c-8.66,0 -12.98,4.11 -12.98,12.32 0,6.36 2.11,10.1 6.33,11.21l0 13.66c-5.25,-1.04 -9.45,-3.83 -12.6,-8.38 -3.14,-4.55 -4.72,-10.09 -4.72,-16.6zm39.29 -12.21l-2.33 0 0.11 24.19 2.33 0c4.22,0 7.46,-1 9.71,-3 2.26,-2 3.39,-4.99 3.39,-8.99 0,-4.07 -1.15,-7.12 -3.44,-9.16 -2.29,-2.04 -5.55,-3.05 -9.77,-3.05zm-39.29 73.48c0,-6.14 2.09,-11.06 6.27,-14.77 4.18,-3.7 9.86,-5.55 17.04,-5.55l16.54 0c7.18,0 12.88,1.85 17.1,5.55 4.22,3.7 6.33,8.62 6.33,14.77 0,4.52 -1.13,8.18 -3.39,10.99 -2.26,2.81 -5.38,4.55 -9.38,5.22l0 0.33 14.54 -0.44 17.09 0 0 13.88 -81.02 0 0 -13.55 11.66 0 0 -0.22c-4.07,-0.59 -7.22,-2.31 -9.44,-5.16 -2.22,-2.85 -3.33,-6.53 -3.33,-11.04zm11.99 4.88c0,3.55 1.05,6.31 3.16,8.27 2.11,1.96 5.05,2.94 8.82,2.94l15.32 0c3.78,0 6.72,-0.98 8.83,-2.94 2.11,-1.96 3.16,-4.71 3.16,-8.27 0,-3.55 -1.04,-6.33 -3.11,-8.33 -2.07,-2 -5.03,-3 -8.88,-3l-15.32 0c-3.85,0 -6.8,1 -8.88,3 -2.07,2 -3.11,4.77 -3.11,8.33zm-10.88 108.77l81.02 0 0 24.86c0,7.85 -1.87,14.06 -5.61,18.65 -3.74,4.59 -8.82,6.88 -15.26,6.88 -4.81,0 -8.77,-1.39 -11.88,-4.16 -3.11,-2.78 -5.03,-6.35 -5.77,-10.71 -0.59,4.88 -2.57,8.9 -5.94,12.04 -3.37,3.15 -7.86,4.72 -13.49,4.72 -7.03,0 -12.64,-2.35 -16.82,-7.05 -4.18,-4.7 -6.27,-11.08 -6.27,-19.15l0 -26.08zm47.62 13.55l0 11.1c0,3.63 0.98,6.51 2.94,8.65 1.96,2.15 4.64,3.22 8.04,3.22 3.33,0 5.98,-1.05 7.94,-3.16 1.96,-2.11 2.94,-5.02 2.94,-8.71l0 -11.1 -21.86 0zm-36.08 0l0 11.65c0,4.07 1.09,7.27 3.28,9.6 2.18,2.33 5.16,3.5 8.94,3.5 3.78,0 6.83,-1.17 9.16,-3.5 2.33,-2.33 3.49,-5.53 3.49,-9.6l0 -11.65 -24.86 0zm-11.54 54.94l61.05 0 0 13.09 -11.66 0 0 0.11c8.51,1.92 12.76,7.51 12.76,16.76 0,6.59 -2.04,11.77 -6.11,15.54 -4.07,3.78 -9.69,5.66 -16.87,5.66l-4.44 0 0 -14.54 3.44 0c3.92,0 6.96,-1.02 9.11,-3.05 2.15,-2.04 3.22,-4.83 3.22,-8.38 0,-3.55 -1.07,-6.33 -3.22,-8.33 -2.15,-2 -5.18,-3 -9.11,-3l-38.18 0 0 -13.87zm-1.11 82.69c0,-6.29 1.65,-11.24 4.94,-14.87 3.29,-3.63 7.79,-5.44 13.49,-5.44 6,0 10.62,2.02 13.87,6.05 3.26,4.03 4.89,9.67 4.89,16.92l0 15.21 5.22 0c2.96,0 5.27,-0.96 6.94,-2.89 1.66,-1.92 2.5,-4.55 2.5,-7.88 0,-3.03 -0.67,-5.55 -2,-7.55 -1.33,-2 -3.15,-3.18 -5.44,-3.55l0 -13.54c5.77,0.67 10.36,3.26 13.77,7.77 3.41,4.51 5.11,10.28 5.11,17.32 0,7.4 -1.87,13.28 -5.6,17.64 -3.74,4.37 -8.79,6.55 -15.16,6.55l-41.4 0 0 -13.43 10.66 0 0 -0.22c-3.63,-0.74 -6.5,-2.72 -8.61,-5.94 -2.11,-3.22 -3.16,-7.27 -3.16,-12.16zm10.44 4.55c0,3.92 1,7.12 3,9.6 2,2.48 4.59,3.72 7.77,3.72l7.44 0 0 -14.99c0,-2.81 -0.81,-5.07 -2.44,-6.77 -1.63,-1.7 -3.78,-2.55 -6.44,-2.55 -2.88,0 -5.16,0.98 -6.83,2.94 -1.67,1.96 -2.5,4.64 -2.5,8.05zm-9.33 44.06l61.05 0 0 13.55 -11.66 0 0 0.22c4,0.67 7.12,2.41 9.38,5.22 2.26,2.81 3.39,6.47 3.39,10.99 0,5.99 -2,10.78 -6,14.37 -4,3.59 -9.36,5.39 -16.09,5.39l-40.07 0 0 -13.88 38.63 0c3.7,0 6.55,-0.98 8.54,-2.94 2,-1.96 3,-4.61 3,-7.94 0,-3.48 -1.04,-6.2 -3.11,-8.16 -2.07,-1.96 -5.03,-2.94 -8.88,-2.94l-38.18 0 0 -13.88zm-1.11 91.68c0,-5.18 0.98,-9.71 2.94,-13.6 1.96,-3.89 4.74,-6.9 8.33,-9.05 3.59,-2.15 7.83,-3.22 12.71,-3.22l15.32 0c4.89,0 9.12,1.07 12.71,3.22 3.59,2.15 6.36,5.16 8.32,9.05 1.96,3.89 2.94,8.42 2.94,13.6 0,7.7 -1.98,13.84 -5.94,18.43 -3.96,4.59 -9.34,6.99 -16.15,7.22l0 -13.88c3.18,-0.22 5.64,-1.37 7.38,-3.44 1.74,-2.07 2.61,-4.85 2.61,-8.33 0,-3.7 -1.02,-6.62 -3.05,-8.77 -2.04,-2.15 -4.94,-3.22 -8.72,-3.22l-15.43 0c-3.77,0 -6.7,1.07 -8.77,3.22 -2.07,2.15 -3.11,5.07 -3.11,8.77 0,3.55 0.87,6.35 2.61,8.38 1.74,2.04 4.2,3.16 7.38,3.39l0 13.88c-6.81,-0.22 -12.19,-2.63 -16.15,-7.22 -3.96,-4.59 -5.94,-10.73 -5.94,-18.43zm0.11 66.26c0,-7.84 2.16,-14.06 6.49,-18.65 4.33,-4.59 10.16,-6.88 17.49,-6.88l15.1 0c7.32,0 13.15,2.29 17.48,6.88 4.33,4.59 6.5,10.81 6.5,18.65 0,7.85 -2.17,14.06 -6.5,18.65 -4.33,4.59 -10.12,6.88 -17.37,6.88l-15.2 0c-7.33,0 -13.15,-2.29 -17.49,-6.88 -4.33,-4.59 -6.49,-10.8 -6.49,-18.65zm12.1 0c0,3.7 1.02,6.57 3.05,8.61 2.04,2.03 4.98,3.05 8.83,3.05l15.1 0c3.85,0 6.79,-1.02 8.82,-3.05 2.04,-2.04 3.05,-4.9 3.05,-8.61 0,-3.7 -1.02,-6.57 -3.05,-8.6 -2.03,-2.03 -4.98,-3.05 -8.82,-3.05l-15.1 0c-3.85,0 -6.79,1.02 -8.83,3.05 -2.04,2.04 -3.05,4.9 -3.05,8.6zm19.09 115.44l12.88 0 0 35.51 -12.88 0 0 -35.51zm-31.3 150.84c0,-7.48 1.87,-13.47 5.61,-17.98 3.74,-4.52 8.82,-7 15.26,-7.44l0 13.88c-2.74,0.3 -4.88,1.43 -6.44,3.38 -1.55,1.96 -2.33,4.68 -2.33,8.16 0,3.84 1,6.77 3,8.77 2,2 4.85,3 8.55,3l7.88 0c3.63,0 6.44,-0.98 8.44,-2.94 2,-1.96 3,-4.9 3,-8.82 0,-4.81 -1.81,-8.14 -5.44,-9.99l0 -13.54 44.62 0.56 0 45.62 -12.54 0 0 -32.52 -23.53 -0.22 0 0.22c2.59,0.74 4.61,2.39 6.05,4.94 1.44,2.55 2.17,5.79 2.17,9.72 0.07,6.58 -1.91,11.71 -5.94,15.37 -4.03,3.66 -9.64,5.49 -16.82,5.49l-7.88 0c-7.33,0 -13.1,-2.27 -17.32,-6.83 -4.22,-4.55 -6.33,-10.82 -6.33,-18.81zm1.11 39.18l61.05 0 0 11.32 -8.22 0 0 0.56c2.81,0.37 5.07,1.44 6.77,3.22 1.7,1.77 2.55,4.03 2.55,6.77 0,2.59 -0.83,4.77 -2.5,6.55 -1.67,1.78 -3.94,2.96 -6.83,3.55l0 0.44c2.81,0.45 5.07,1.59 6.77,3.44 1.7,1.85 2.55,4.18 2.55,6.99 0,3.7 -1.44,6.68 -4.33,8.94 -2.89,2.26 -6.66,3.39 -11.33,3.39l-46.51 0 0 -12.21 45.51 0c4.29,0 6.44,-1.74 6.44,-5.22 0,-3.48 -2.15,-5.22 -6.44,-5.22l-45.51 0 0 -9.99 45.51 0c4.29,0 6.44,-1.74 6.44,-5.22 0,-3.4 -2.15,-5.11 -6.44,-5.11l-45.51 0 0 -12.21zm0 66.6l61.05 0 0 11.32 -8.22 0 0 0.56c2.81,0.37 5.07,1.44 6.77,3.22 1.7,1.78 2.55,4.03 2.55,6.77 0,2.59 -0.83,4.77 -2.5,6.55 -1.67,1.78 -3.94,2.96 -6.83,3.55l0 0.44c2.81,0.45 5.07,1.59 6.77,3.44 1.7,1.85 2.55,4.18 2.55,6.99 0,3.7 -1.44,6.68 -4.33,8.94 -2.89,2.26 -6.66,3.39 -11.33,3.39l-46.51 0 0 -12.21 45.51 0c4.29,0 6.44,-1.74 6.44,-5.22 0,-3.48 -2.15,-5.22 -6.44,-5.22l-45.51 0 0 -9.99 45.51 0c4.29,0 6.44,-1.74 6.44,-5.22 0,-3.4 -2.15,-5.11 -6.44,-5.11l-45.51 0 0 -12.21z"/>
   <path class="fil8" d="M4328.26 964.23l0 -81.02 25.64 0c5.4,0 10.08,1 14.04,3 3.96,2 7.05,4.79 9.27,8.38 2.22,3.59 3.33,7.83 3.33,12.71 0,5.4 -1.35,10.12 -4.05,14.15 -2.7,4.03 -6.35,6.9 -10.94,8.6l16.1 34.19 -15.54 0 -14.1 -32.19 -9.88 0 0 32.19 -13.88 0zm13.88 -44.4l11.77 0c3.92,0 6.99,-1.07 9.21,-3.22 2.22,-2.15 3.33,-5.11 3.33,-8.88 0,-3.78 -1.13,-6.77 -3.39,-8.99 -2.26,-2.22 -5.31,-3.33 -9.16,-3.33l-11.77 0 0 24.41zm77.69 45.51c-5.18,0 -9.69,-1 -13.54,-3 -3.85,-2 -6.83,-4.79 -8.94,-8.38 -2.11,-3.59 -3.16,-7.79 -3.16,-12.6l0 -15.32c0,-4.81 1.05,-9.01 3.16,-12.6 2.11,-3.59 5.09,-6.38 8.94,-8.38 3.85,-2 8.37,-3 13.54,-3 5.11,0 9.57,1 13.38,3 3.81,2 6.77,4.79 8.88,8.38 2.11,3.59 3.16,7.79 3.16,12.6l0 10.98 -37.62 0 0 4.33c0,8.66 4.11,12.98 12.32,12.98 6.36,0 10.1,-2.11 11.21,-6.33l13.66 0c-1.04,5.25 -3.83,9.45 -8.38,12.6 -4.55,3.15 -10.08,4.72 -16.6,4.72zm-12.21 -39.29l0 2.33 24.19 -0.11 0 -2.33c0,-4.22 -1,-7.46 -3,-9.71 -2,-2.26 -4.99,-3.39 -8.99,-3.39 -4.07,0 -7.12,1.15 -9.16,3.44 -2.04,2.29 -3.05,5.55 -3.05,9.77zm76.36 39.18c-6.96,0 -12.56,-1.59 -16.82,-4.77 -4.26,-3.18 -6.49,-7.47 -6.71,-12.88l13.87 0c0.15,2 1.09,3.57 2.83,4.72 1.74,1.15 4.02,1.72 6.83,1.72l4.89 0c3.4,0 5.95,-0.67 7.66,-2 1.7,-1.33 2.55,-3.14 2.55,-5.44 0,-4.07 -3.11,-6.55 -9.33,-7.44l-7.55 -1.11c-6.95,-0.96 -12.06,-2.81 -15.32,-5.55 -3.26,-2.74 -4.88,-6.84 -4.88,-12.32 0,-5.7 1.92,-10.12 5.77,-13.26 3.85,-3.15 9.51,-4.72 16.99,-4.72l4.22 0c6.73,0 12.15,1.52 16.26,4.55 4.11,3.03 6.31,7.11 6.61,12.21l-13.87 0c-0.22,-1.63 -1.13,-2.96 -2.72,-4 -1.59,-1.04 -3.68,-1.55 -6.27,-1.55l-4.22 0c-3.18,0 -5.5,0.57 -6.94,1.72 -1.44,1.15 -2.17,2.83 -2.17,5.05 0,2.07 0.63,3.63 1.89,4.66 1.26,1.03 3.29,1.73 6.1,2.11l7.88 1.11c7.25,1.04 12.6,2.98 16.04,5.83 3.44,2.85 5.16,7.05 5.16,12.6 0,5.99 -2.02,10.62 -6.05,13.87 -4.03,3.26 -9.97,4.88 -17.81,4.88l-4.89 0zm44.07 -1l0 -12.65 21.31 0 0 -35.85 -18.54 0 0 -12.55 31.86 0 0 48.4 18.86 0 0 12.65 -53.5 0zm26.86 -71.26c-2.81,0 -5.03,-0.72 -6.66,-2.16 -1.63,-1.44 -2.44,-3.39 -2.44,-5.83 0,-2.44 0.81,-4.39 2.44,-5.83 1.63,-1.44 3.85,-2.17 6.66,-2.17 2.81,0 5.03,0.72 6.66,2.17 1.63,1.44 2.44,3.39 2.44,5.83 0,2.44 -0.81,4.38 -2.44,5.83 -1.63,1.44 -3.85,2.16 -6.66,2.16zm62.26 72.26c-6.96,0 -12.56,-1.59 -16.81,-4.77 -4.26,-3.18 -6.49,-7.47 -6.72,-12.88l13.87 0c0.15,2 1.09,3.57 2.83,4.72 1.74,1.15 4.02,1.72 6.83,1.72l4.89 0c3.4,0 5.95,-0.67 7.66,-2 1.7,-1.33 2.55,-3.14 2.55,-5.44 0,-4.07 -3.11,-6.55 -9.33,-7.44l-7.55 -1.11c-6.96,-0.96 -12.06,-2.81 -15.32,-5.55 -3.26,-2.74 -4.88,-6.84 -4.88,-12.32 0,-5.7 1.92,-10.12 5.77,-13.26 3.85,-3.15 9.51,-4.72 16.98,-4.72l4.22 0c6.73,0 12.15,1.52 16.26,4.55 4.11,3.03 6.31,7.11 6.61,12.21l-13.88 0c-0.22,-1.63 -1.13,-2.96 -2.72,-4 -1.59,-1.04 -3.68,-1.55 -6.27,-1.55l-4.22 0c-3.18,0 -5.49,0.57 -6.94,1.72 -1.44,1.15 -2.17,2.83 -2.17,5.05 0,2.07 0.63,3.63 1.89,4.66 1.26,1.03 3.29,1.73 6.11,2.11l7.88 1.11c7.25,1.04 12.6,2.98 16.04,5.83 3.44,2.85 5.16,7.05 5.16,12.6 0,5.99 -2.02,10.62 -6.05,13.87 -4.03,3.26 -9.97,4.88 -17.81,4.88l-4.89 0zm75.59 -1c-5.85,0 -10.42,-1.63 -13.71,-4.88 -3.29,-3.26 -4.94,-7.74 -4.94,-13.43l0 -30.19 -16.54 0 0 -12.55 16.54 0 0 -17.2 13.99 0 0 17.2 23.42 0 0 12.55 -23.42 0 0 30.19c0,3.85 1.89,5.77 5.66,5.77l16.65 0 0 12.55 -17.65 0zm59.94 1c-7.84,0 -14.06,-2.16 -18.65,-6.49 -4.59,-4.33 -6.88,-10.16 -6.88,-17.48l0 -15.1c0,-7.32 2.29,-13.15 6.88,-17.48 4.59,-4.33 10.81,-6.5 18.65,-6.5 7.84,0 14.06,2.16 18.65,6.5 4.59,4.33 6.88,10.12 6.88,17.37l0 15.2c0,7.33 -2.29,13.15 -6.88,17.48 -4.59,4.33 -10.81,6.49 -18.65,6.49zm0 -12.1c3.7,0 6.57,-1.02 8.61,-3.05 2.03,-2.04 3.05,-4.98 3.05,-8.83l0 -15.1c0,-3.85 -1.02,-6.79 -3.05,-8.82 -2.04,-2.04 -4.9,-3.05 -8.61,-3.05 -3.7,0 -6.57,1.02 -8.6,3.05 -2.03,2.03 -3.05,4.98 -3.05,8.82l0 15.1c0,3.85 1.02,6.79 3.05,8.83 2.04,2.04 4.9,3.05 8.6,3.05zm43.73 11.1l0 -61.05 13.09 0 0 11.66 0.11 0c1.92,-8.51 7.51,-12.76 16.76,-12.76 6.59,0 11.76,2.04 15.53,6.11 3.78,4.07 5.66,9.69 5.66,16.87l0 4.44 -14.54 0 0 -3.44c0,-3.92 -1.02,-6.96 -3.05,-9.11 -2.04,-2.15 -4.83,-3.22 -8.38,-3.22 -3.55,0 -6.33,1.07 -8.33,3.22 -2,2.15 -3,5.18 -3,9.11l0 38.18 -13.87 0zm132.08 0l0 -12.21 21.09 0 0 -56.5 -21.2 15.77 0 -14.65 18.65 -13.43 16.43 0 0 68.81 16.98 0 0 12.21 -51.95 0zm90.57 1.11c-5.26,0 -9.81,-1 -13.65,-3 -3.85,-2 -6.83,-4.81 -8.93,-8.44 -2.11,-3.63 -3.17,-7.88 -3.17,-12.77l0 -34.85c0,-4.89 1.06,-9.14 3.17,-12.77 2.11,-3.63 5.09,-6.43 8.93,-8.43 3.85,-2 8.4,-3 13.65,-3 5.26,0 9.81,1 13.66,3 3.84,2 6.82,4.81 8.93,8.43 2.11,3.63 3.16,7.88 3.16,12.77l0 34.85c0,4.88 -1.05,9.14 -3.16,12.77 -2.11,3.63 -5.09,6.44 -8.93,8.44 -3.85,2 -8.4,3 -13.66,3zm0 -11.99c3.85,0 6.92,-1.11 9.22,-3.33 2.29,-2.22 3.44,-5.18 3.44,-8.88l0 -34.85c0,-3.7 -1.13,-6.66 -3.38,-8.88 -2.26,-2.22 -5.35,-3.33 -9.27,-3.33 -3.92,0 -7.01,1.11 -9.27,3.33 -2.26,2.22 -3.39,5.18 -3.39,8.88l0 34.85c0,3.7 1.15,6.66 3.44,8.88 2.29,2.22 5.37,3.33 9.21,3.33zm0 -22.42c-2.22,0 -3.99,-0.7 -5.33,-2.11 -1.33,-1.41 -2,-3.22 -2,-5.44 0,-2.22 0.67,-4 2,-5.33 1.33,-1.33 3.11,-2 5.33,-2 2.22,0 4,0.67 5.33,2 1.33,1.33 2,3.11 2,5.33 0,2.22 -0.67,4.03 -2,5.44 -1.33,1.41 -3.11,2.11 -5.33,2.11zm42.18 33.3l0 -81.02 13.88 0 0 43.95 9.65 0 14.88 -23.98 15.54 0 -18.42 29.53 18.76 31.52 -15.87 0 -14.88 -25.31 -9.65 0 0 25.31 -13.88 0zm91.02 1c-7.85,0 -14.06,-2.16 -18.65,-6.49 -4.59,-4.33 -6.88,-10.16 -6.88,-17.48l0 -15.1c0,-7.32 2.29,-13.15 6.88,-17.48 4.59,-4.33 10.8,-6.5 18.65,-6.5 7.84,0 14.06,2.16 18.65,6.5 4.59,4.33 6.88,10.12 6.88,17.37l0 15.2c0,7.33 -2.29,13.15 -6.88,17.48 -4.59,4.33 -10.81,6.49 -18.65,6.49zm0 -12.1c3.7,0 6.57,-1.02 8.6,-3.05 2.03,-2.04 3.05,-4.98 3.05,-8.83l0 -15.1c0,-3.85 -1.02,-6.79 -3.05,-8.82 -2.04,-2.04 -4.9,-3.05 -8.6,-3.05 -3.7,0 -6.57,1.02 -8.61,3.05 -2.03,2.03 -3.05,4.98 -3.05,8.82l0 15.1c0,3.85 1.02,6.79 3.05,8.83 2.04,2.04 4.9,3.05 8.61,3.05zm41.84 11.1l0 -81.02 13.88 0 0 19.97 -0.33 11.66 0.22 0c0.59,-4 2.31,-7.12 5.16,-9.38 2.85,-2.26 6.53,-3.39 11.04,-3.39 6,0 10.79,2 14.38,6 3.59,3.99 5.38,9.36 5.38,16.09l0 40.07 -13.87 0 0 -38.63c0,-3.7 -0.98,-6.55 -2.94,-8.54 -1.96,-2 -4.64,-3 -8.05,-3 -3.4,0 -6.08,1.04 -8.04,3.11 -1.96,2.07 -2.94,5.03 -2.94,8.88l0 38.18 -13.88 0zm63.82 0l0 -61.05 11.33 0 0 8.22 0.56 0c0.37,-2.81 1.44,-5.07 3.22,-6.77 1.77,-1.7 4.03,-2.55 6.77,-2.55 2.59,0 4.77,0.83 6.55,2.5 1.78,1.67 2.96,3.94 3.55,6.83l0.44 0c0.44,-2.81 1.59,-5.07 3.44,-6.77 1.85,-1.7 4.18,-2.55 6.99,-2.55 3.7,0 6.68,1.44 8.94,4.33 2.26,2.89 3.39,6.66 3.39,11.33l0 46.51 -12.21 0 0 -45.51c0,-4.29 -1.74,-6.44 -5.22,-6.44 -3.48,0 -5.21,2.15 -5.21,6.44l0 45.51 -9.99 0 0 -45.51c0,-4.29 -1.74,-6.44 -5.22,-6.44 -3.4,0 -5.11,2.15 -5.11,6.44l0 45.51 -12.21 0z"/>
   <path class="fil8" d="M4308.98 2039.56l0 -81.02 25.64 0c5.4,0 10.08,1 14.03,3 3.96,2 7.05,4.79 9.27,8.38 2.22,3.59 3.33,7.83 3.33,12.71 0,5.4 -1.35,10.12 -4.05,14.15 -2.7,4.03 -6.35,6.9 -10.94,8.61l16.1 34.18 -15.54 0 -14.1 -32.18 -9.88 0 0 32.18 -13.87 0zm13.87 -44.4l11.77 0c3.92,0 6.99,-1.07 9.21,-3.22 2.22,-2.15 3.33,-5.11 3.33,-8.88 0,-3.78 -1.13,-6.77 -3.39,-8.99 -2.26,-2.22 -5.31,-3.33 -9.15,-3.33l-11.77 0 0 24.42zm77.69 45.51c-5.18,0 -9.69,-1 -13.54,-3 -3.85,-2 -6.83,-4.79 -8.94,-8.38 -2.11,-3.59 -3.16,-7.79 -3.16,-12.6l0 -15.32c0,-4.81 1.05,-9.01 3.16,-12.6 2.11,-3.59 5.09,-6.38 8.94,-8.38 3.85,-2 8.37,-3 13.54,-3 5.11,0 9.57,1 13.38,3 3.81,2 6.77,4.79 8.88,8.38 2.11,3.59 3.16,7.79 3.16,12.6l0 10.99 -37.63 0 0 4.33c0,8.66 4.11,12.99 12.32,12.99 6.37,0 10.1,-2.11 11.21,-6.33l13.65 0c-1.04,5.25 -3.83,9.45 -8.38,12.6 -4.55,3.14 -10.08,4.72 -16.6,4.72zm-12.21 -39.29l0 2.33 24.2 -0.11 0 -2.33c0,-4.22 -1,-7.46 -3,-9.71 -2,-2.26 -4.99,-3.39 -8.99,-3.39 -4.07,0 -7.12,1.15 -9.15,3.44 -2.04,2.3 -3.05,5.55 -3.05,9.77zm76.36 39.18c-6.96,0 -12.56,-1.59 -16.82,-4.77 -4.25,-3.18 -6.49,-7.47 -6.71,-12.88l13.87 0c0.15,2 1.09,3.57 2.83,4.72 1.74,1.15 4.02,1.72 6.83,1.72l4.89 0c3.41,0 5.96,-0.67 7.66,-2 1.7,-1.33 2.55,-3.14 2.55,-5.44 0,-4.07 -3.11,-6.55 -9.33,-7.44l-7.55 -1.11c-6.96,-0.96 -12.06,-2.81 -15.32,-5.55 -3.26,-2.74 -4.89,-6.85 -4.89,-12.32 0,-5.7 1.92,-10.12 5.77,-13.26 3.85,-3.15 9.51,-4.72 16.99,-4.72l4.22 0c6.73,0 12.15,1.52 16.26,4.55 4.11,3.04 6.31,7.11 6.6,12.21l-13.87 0c-0.22,-1.63 -1.13,-2.96 -2.72,-3.99 -1.59,-1.04 -3.68,-1.55 -6.27,-1.55l-4.22 0c-3.18,0 -5.5,0.57 -6.94,1.72 -1.44,1.15 -2.17,2.83 -2.17,5.05 0,2.07 0.63,3.63 1.89,4.66 1.26,1.04 3.29,1.74 6.1,2.11l7.88 1.11c7.25,1.04 12.6,2.98 16.04,5.83 3.44,2.85 5.16,7.05 5.16,12.6 0,6 -2.02,10.62 -6.05,13.88 -4.03,3.26 -9.97,4.88 -17.81,4.88l-4.89 0zm44.07 -1l0 -12.65 21.31 0 0 -35.85 -18.54 0 0 -12.54 31.86 0 0 48.4 18.86 0 0 12.65 -53.5 0zm26.86 -71.26c-2.81,0 -5.03,-0.72 -6.66,-2.17 -1.63,-1.44 -2.44,-3.38 -2.44,-5.83 0,-2.44 0.81,-4.39 2.44,-5.83 1.63,-1.44 3.85,-2.17 6.66,-2.17 2.81,0 5.03,0.72 6.66,2.17 1.63,1.44 2.44,3.39 2.44,5.83 0,2.44 -0.81,4.39 -2.44,5.83 -1.63,1.44 -3.85,2.17 -6.66,2.17zm62.26 72.26c-6.95,0 -12.56,-1.59 -16.81,-4.77 -4.26,-3.18 -6.49,-7.47 -6.72,-12.88l13.88 0c0.15,2 1.09,3.57 2.83,4.72 1.74,1.15 4.02,1.72 6.83,1.72l4.89 0c3.4,0 5.95,-0.67 7.66,-2 1.7,-1.33 2.55,-3.14 2.55,-5.44 0,-4.07 -3.11,-6.55 -9.33,-7.44l-7.55 -1.11c-6.96,-0.96 -12.06,-2.81 -15.32,-5.55 -3.26,-2.74 -4.88,-6.85 -4.88,-12.32 0,-5.7 1.92,-10.12 5.77,-13.26 3.85,-3.15 9.51,-4.72 16.98,-4.72l4.22 0c6.73,0 12.15,1.52 16.26,4.55 4.11,3.04 6.31,7.11 6.61,12.21l-13.87 0c-0.22,-1.63 -1.13,-2.96 -2.72,-3.99 -1.59,-1.04 -3.68,-1.55 -6.27,-1.55l-4.22 0c-3.18,0 -5.49,0.57 -6.94,1.72 -1.44,1.15 -2.17,2.83 -2.17,5.05 0,2.07 0.63,3.63 1.89,4.66 1.26,1.04 3.29,1.74 6.1,2.11l7.88 1.11c7.25,1.04 12.6,2.98 16.04,5.83 3.44,2.85 5.16,7.05 5.16,12.6 0,6 -2.02,10.62 -6.05,13.88 -4.03,3.26 -9.97,4.88 -17.81,4.88l-4.89 0zm75.59 -1c-5.84,0 -10.42,-1.63 -13.7,-4.88 -3.29,-3.26 -4.94,-7.73 -4.94,-13.43l0 -30.19 -16.54 0 0 -12.54 16.54 0 0 -17.2 13.99 0 0 17.2 23.42 0 0 12.54 -23.42 0 0 30.19c0,3.85 1.89,5.77 5.66,5.77l16.65 0 0 12.54 -17.65 0zm59.94 1c-7.84,0 -14.06,-2.17 -18.64,-6.49 -4.59,-4.33 -6.88,-10.16 -6.88,-17.49l0 -15.09c0,-7.32 2.29,-13.15 6.88,-17.48 4.59,-4.33 10.8,-6.49 18.64,-6.49 7.85,0 14.06,2.16 18.65,6.49 4.59,4.33 6.88,10.12 6.88,17.37l0 15.2c0,7.33 -2.29,13.16 -6.88,17.49 -4.59,4.33 -10.8,6.49 -18.65,6.49zm0 -12.1c3.7,0 6.57,-1.02 8.61,-3.05 2.03,-2.04 3.05,-4.98 3.05,-8.83l0 -15.09c0,-3.85 -1.02,-6.79 -3.05,-8.82 -2.04,-2.04 -4.9,-3.05 -8.61,-3.05 -3.7,0 -6.57,1.02 -8.6,3.05 -2.03,2.03 -3.05,4.97 -3.05,8.82l0 15.09c0,3.85 1.02,6.79 3.05,8.83 2.04,2.04 4.9,3.05 8.6,3.05zm43.73 11.1l0 -61.05 13.09 0 0 11.66 0.11 0c1.92,-8.51 7.51,-12.76 16.76,-12.76 6.59,0 11.77,2.04 15.54,6.1 3.78,4.07 5.66,9.69 5.66,16.87l0 4.44 -14.54 0 0 -3.44c0,-3.92 -1.02,-6.96 -3.05,-9.11 -2.04,-2.15 -4.83,-3.21 -8.38,-3.21 -3.55,0 -6.33,1.07 -8.33,3.21 -2,2.15 -3,5.18 -3,9.11l0 38.18 -13.87 0zm155.28 1.11c-5.25,0 -9.82,-0.97 -13.71,-2.89 -3.89,-1.92 -6.9,-4.62 -9.04,-8.1 -2.15,-3.48 -3.22,-7.59 -3.22,-12.32l13.98 0c0,3.63 1.05,6.46 3.16,8.49 2.11,2.04 5.09,3.05 8.94,3.05 3.85,0 6.8,-1.04 8.88,-3.11 2.07,-2.07 3.11,-4.88 3.11,-8.44l0 -6.1c0,-3.63 -1.05,-6.46 -3.16,-8.49 -2.11,-2.03 -5.05,-3.05 -8.82,-3.05l-9.55 0 0 -11.1 17.87 -18.2 -30.75 0 0 -11.88 45.51 0 0 11.43 -18.1 18.09c6.51,0.89 11.64,3.37 15.38,7.44 3.74,4.07 5.6,9.33 5.6,15.77l0 6.1c0,4.74 -1.07,8.84 -3.22,12.32 -2.15,3.48 -5.18,6.18 -9.11,8.1 -3.92,1.92 -8.51,2.89 -13.76,2.89zm66.6 0c-5.25,0 -9.82,-0.97 -13.71,-2.89 -3.89,-1.92 -6.9,-4.62 -9.05,-8.1 -2.15,-3.48 -3.22,-7.59 -3.22,-12.32l13.98 0c0,3.63 1.06,6.46 3.16,8.49 2.11,2.04 5.09,3.05 8.94,3.05 3.85,0 6.8,-1.04 8.88,-3.11 2.07,-2.07 3.11,-4.88 3.11,-8.44l0 -6.1c0,-3.63 -1.06,-6.46 -3.16,-8.49 -2.11,-2.03 -5.05,-3.05 -8.82,-3.05l-9.55 0 0 -11.1 17.88 -18.2 -30.75 0 0 -11.88 45.51 0 0 11.43 -18.09 18.09c6.51,0.89 11.64,3.37 15.38,7.44 3.73,4.07 5.6,9.33 5.6,15.77l0 6.1c0,4.74 -1.07,8.84 -3.22,12.32 -2.15,3.48 -5.18,6.18 -9.11,8.1 -3.92,1.92 -8.51,2.89 -13.76,2.89zm67.37 0c-5.26,0 -9.81,-1 -13.65,-3 -3.85,-2 -6.83,-4.81 -8.93,-8.43 -2.11,-3.63 -3.17,-7.88 -3.17,-12.77l0 -34.85c0,-4.88 1.06,-9.14 3.17,-12.77 2.11,-3.63 5.09,-6.44 8.93,-8.44 3.85,-2 8.4,-3 13.65,-3 5.26,0 9.81,1 13.66,3 3.84,2 6.82,4.81 8.93,8.44 2.11,3.63 3.16,7.88 3.16,12.77l0 34.85c0,4.88 -1.05,9.14 -3.16,12.77 -2.11,3.63 -5.09,6.44 -8.93,8.43 -3.85,2 -8.4,3 -13.66,3zm0 -11.99c3.85,0 6.92,-1.11 9.22,-3.33 2.29,-2.22 3.44,-5.18 3.44,-8.88l0 -34.85c0,-3.7 -1.13,-6.66 -3.38,-8.88 -2.26,-2.22 -5.35,-3.33 -9.27,-3.33 -3.92,0 -7.01,1.11 -9.27,3.33 -2.26,2.22 -3.39,5.18 -3.39,8.88l0 34.85c0,3.7 1.15,6.66 3.44,8.88 2.29,2.22 5.37,3.33 9.21,3.33zm0 -22.42c-2.22,0 -3.99,-0.7 -5.33,-2.11 -1.33,-1.41 -2,-3.22 -2,-5.44 0,-2.22 0.67,-3.99 2,-5.33 1.33,-1.33 3.11,-2 5.33,-2 2.22,0 4,0.67 5.33,2 1.33,1.33 2,3.11 2,5.33 0,2.22 -0.67,4.03 -2,5.44 -1.33,1.41 -3.11,2.11 -5.33,2.11zm66.6 34.29c-7.84,0 -14.06,-2.17 -18.65,-6.49 -4.59,-4.33 -6.88,-10.16 -6.88,-17.49l0 -15.09c0,-7.32 2.29,-13.15 6.88,-17.48 4.59,-4.33 10.81,-6.49 18.65,-6.49 7.84,0 14.06,2.16 18.65,6.49 4.59,4.33 6.88,10.12 6.88,17.37l0 15.2c0,7.33 -2.29,13.16 -6.88,17.49 -4.59,4.33 -10.81,6.49 -18.65,6.49zm0 -12.1c3.7,0 6.57,-1.02 8.61,-3.05 2.03,-2.04 3.05,-4.98 3.05,-8.83l0 -15.09c0,-3.85 -1.02,-6.79 -3.05,-8.82 -2.04,-2.04 -4.91,-3.05 -8.61,-3.05 -3.7,0 -6.57,1.02 -8.61,3.05 -2.03,2.03 -3.05,4.97 -3.05,8.82l0 15.09c0,3.85 1.02,6.79 3.05,8.83 2.04,2.04 4.9,3.05 8.61,3.05zm41.84 11.1l0 -81.02 13.88 0 0 19.98 -0.33 11.66 0.22 0c0.59,-4 2.31,-7.12 5.16,-9.38 2.85,-2.25 6.53,-3.38 11.04,-3.38 5.99,0 10.78,2 14.37,5.99 3.59,4 5.39,9.36 5.39,16.09l0 40.07 -13.88 0 0 -38.62c0,-3.7 -0.98,-6.55 -2.94,-8.55 -1.96,-2 -4.64,-3 -8.05,-3 -3.41,0 -6.09,1.04 -8.05,3.11 -1.96,2.07 -2.94,5.03 -2.94,8.88l0 38.18 -13.88 0zm63.83 0l0 -61.05 11.32 0 0 8.22 0.56 0c0.37,-2.81 1.44,-5.07 3.22,-6.77 1.77,-1.7 4.03,-2.55 6.77,-2.55 2.59,0 4.77,0.83 6.55,2.5 1.78,1.67 2.96,3.94 3.55,6.83l0.44 0c0.44,-2.81 1.59,-5.07 3.44,-6.77 1.85,-1.7 4.18,-2.55 6.99,-2.55 3.7,0 6.68,1.44 8.94,4.33 2.25,2.89 3.38,6.66 3.38,11.32l0 46.51 -12.21 0 0 -45.51c0,-4.29 -1.74,-6.44 -5.21,-6.44 -3.48,0 -5.22,2.15 -5.22,6.44l0 45.51 -9.99 0 0 -45.51c0,-4.29 -1.74,-6.44 -5.21,-6.44 -3.41,0 -5.11,2.15 -5.11,6.44l0 45.51 -12.21 0z"/>
   <path class="fil14" d="M2696.03 0l0 0c167.54,0 314.13,94.24 389.39,232.32 -78.81,-71.77 -183.4,-115.67 -297.74,-115.67l0 0c-243.69,0 -443.07,199.38 -443.07,443.07l0 669.92c4.21,2.49 8.51,4.92 12.88,7.27 -45.29,-24.37 -81.76,-55.92 -104.54,-95.3l0 -698.54c0,-243.69 199.38,-443.07 443.07,-443.07zm-193.03 1286.85c-3.35,-0.67 -6.7,-1.38 -10.02,-2.09 3.32,0.72 6.66,1.42 10.02,2.09zm-15.99 -3.41c-5.34,-1.2 -10.63,-2.47 -15.88,-3.79 5.25,1.32 10.54,2.59 15.88,3.79zm-32.5 -8.24c-35.12,-9.91 -67.88,-22.61 -97,-38.28 29.12,15.67 61.89,28.37 97,38.28z"/>
   <path class="fil15" d="M3139.1 985.33c83.81,71.42 89.67,166.01 12.2,251.95 -85.17,94.47 -262.03,150.89 -470.41,150.89 -177.69,0 -332.7,-59.77 -427.94,-130.55l0 -115.99c67.58,116.85 258.78,154.37 440.38,150.34 158.9,-3.53 338.64,-18.86 417.45,-121.26 31.01,-40.28 28.32,-79.24 28.32,-153.32l0 -32.05z"/>
   <path class="fil16" d="M3139.1 985.33c5.96,4.81 11.52,10.03 16.7,15.6 -5.17,-5.31 -10.73,-10.51 -16.7,-15.6zm66.75 127.04c10.08,70.73 -9.2,148.68 -54.56,198.99 -85.17,94.47 -259.95,137.35 -468.33,137.35 -177.69,0 -334.79,-46.23 -430.02,-117.02l0 -74.1c41.09,30.54 93.67,56.51 154.48,76.17 82.39,31.59 183.55,44.91 282.78,42.7 44.08,-0.98 90.01,-3.67 135.05,-9.23 144.19,-15.92 261.14,-57.95 326.04,-129.94 36.8,-40.82 54.79,-83.6 54.56,-124.9zm-66.75 -50.64l0 -40.9c0.02,14.99 0.12,28.51 0,40.9z"/>
   <path class="fil1" d="M4327.82 1283.8c93.26,0 143.28,50.17 287.46,50.17 112.49,0 224.97,0 337.46,0 145.68,0 198.68,-50.17 291.63,-50.17 111.79,0 206.85,71.56 241.91,171.36 13.88,24.41 41.9,42.06 71.6,42.06 65.16,9.33 50.17,97.21 0,97.21 -29.98,0 -59.94,17.5 -75.77,41.76 -38.01,94 -130.12,160.32 -237.74,160.32 -93.53,0 -144.55,-50.17 -291.63,-50.17 -117.61,0 -226.41,0 -337.46,0 -142.54,0 -194.92,50.17 -287.46,50.17 -107.08,0 -198.82,-65.66 -237.17,-158.92 0.11,0.7 0.24,1.41 0.38,2.11 -15.13,-26.06 -46.53,-45.27 -77.93,-45.27 -50.17,0 -65.16,-87.88 0,-97.21 31.41,0 60.93,-19.74 73.85,-46.32l0.38 0.29c36.16,-97.73 130.19,-167.4 240.49,-167.4zm1169.15 212.51l0.15 0.92 1.02 0 -1.18 -0.92z"/>
   <path class="fil4" d="M4914.2 1333.97l38.54 0c35.85,0 66.09,-3.04 92.69,-7.62l0 427.53c-26.51,-4.53 -56.72,-7.54 -92.69,-7.54l-38.54 0 0 -412.37z"/>
   <path class="fil4" d="M5188.12 1289.87c17.77,-3.7 36.07,-6.07 56.25,-6.07 26.09,0 51.26,3.91 74.98,11.15l0 490.41c-23.72,7.24 -48.89,11.15 -74.98,11.15 -20.28,0 -38.56,-2.36 -56.25,-6.05l0 -500.59z"/>
   <polygon class="fil3" points="4640.28,1333.97 4771.51,1333.97 4771.51,1746.34 4640.28,1746.34 "/>
   <path class="fil5" d="M4360.12 1285.85l0 508.6c-10.33,1.31 -21.01,2.06 -32.3,2.06 -11.29,0 -22.41,-0.74 -33.31,-2.15l0 -508.41c10.91,-1.42 22.02,-2.15 33.31,-2.15 11.32,0 22,0.75 32.3,2.05z"/>
   <path class="fil6" d="M4360.12 1285.85l0 373.04 -65.61 0 0 -372.93c10.91,-1.42 22.02,-2.15 33.31,-2.15 11.32,0 22,0.75 32.3,2.05z"/>
   <path class="fil7" d="M4360.12 1285.85l0 266.8 -65.61 0 0 -266.7c10.91,-1.42 22.02,-2.15 33.31,-2.15 11.32,0 22,0.75 32.3,2.05z"/>
   <path class="fil17" style="mask:url(#id0)" d="M2992.3 114.35l0.96 0c5.43,5.19 10.72,10.53 15.87,16.01 -5.48,-5.48 -11.09,-10.82 -16.83,-16.01zm84.34 110.19c38.5,71.37 60.3,155.28 63.11,244.95l0 516.4 -0.65 -0.57 0 32.05 0 3.46 0.01 3.42 0.01 3.31 0 0.08 0.01 3.22 0 0.14 0.01 3.11 0 0.21 0.01 2.99 0 0.3 0.01 2.85 0 0.41 0.01 2.7 0 0.52 0 2.54 0 0.66 0 2.37 0 0.8 -0 2.17 0 0.96c-0.15,51.68 -2.85,83.94 -28.37,117.09 -78.81,102.4 -258.54,117.72 -417.45,121.26 -126.64,2.81 -257.93,-14.59 -348.73,-65l0 -667.23c0,-243.69 199.38,-443.07 443.07,-443.07 110.15,0 211.24,40.74 288.96,107.89z"/>
  </g>
 </g>
</svg>
